<svg width="1000" height="667" viewBox="0 0 1000 667" fill="none" xmlns="http://www.w3.org/2000/svg">
<g clip-path="url(#clip0_4_38)">
<rect width="1000" height="666.667" fill="none"/>
<rect x="233" y="55" width="603" height="442" rx="50" fill="url(#paint0_linear_4_38)"/>
<rect x="126" y="142" width="710" height="469" rx="50" fill="url(#paint1_linear_4_38)"/>
<circle cx="647" cy="388" r="50" fill="white"/>
<path d="M334 452.638C334 422.543 312.336 397.402 283.859 392.235V341.261H302.489C308.503 341.261 313.347 336.413 313.347 330.394C313.347 324.376 308.503 319.528 302.489 319.528H283.859V297.37H302.489C308.503 297.37 313.347 292.523 313.347 286.504C313.347 280.485 308.503 275.638 302.489 275.638H283.859V263.866C283.859 257.847 279.015 253 273 253C266.985 253 262.141 257.847 262.141 263.866V392.235C233.664 397.402 212 422.543 212 452.638C212 486.462 239.36 514 273 514C306.64 514 334 486.462 334 452.638V452.638ZM233.717 452.638C233.717 430.8 251.336 413.009 273 413.009C294.664 413.009 312.283 430.8 312.283 452.638C312.283 474.477 294.664 492.268 273 492.268C251.336 492.268 233.717 474.477 233.717 452.638V452.638Z" fill="white"/>
<g clip-path="url(#clip1_4_38)">
<path d="M831.13 449.793C837.608 449.793 842.86 444.541 842.86 438.063C842.86 431.585 837.608 426.334 831.13 426.334C824.653 426.334 819.401 431.585 819.401 438.063C819.401 444.541 824.653 449.793 831.13 449.793Z" fill="#FF6584"/>
<path d="M923.596 565.744V432.194" stroke="#3F3D56" stroke-width="2" stroke-miterlimit="10"/>
<path d="M923.596 451.08C934.026 451.08 942.482 442.625 942.482 432.194C942.482 421.764 934.026 413.309 923.596 413.309C913.166 413.309 904.71 421.764 904.71 432.194C904.71 442.625 913.166 451.08 923.596 451.08Z" fill="#446AEF"/>
<path d="M886.401 506.97C859.122 548.804 866.596 602.012 866.596 602.012C866.596 602.012 918.3 587.393 945.58 545.559C972.859 503.724 965.385 450.516 965.385 450.516C965.385 450.516 913.681 465.135 886.401 506.97Z" fill="#446AEF"/>
<path d="M866.451 601.526C866.451 601.526 865.787 601.42 864.565 601.173C863.59 600.975 862.248 600.692 860.608 600.304C845.956 596.849 807.001 585.171 781.532 554.467C749.655 516.02 750.998 462.306 750.998 462.306C750.998 462.306 799.738 470.226 831.855 504.752C833.246 506.235 834.601 507.773 835.917 509.365C863.653 542.817 866.239 587.827 866.444 598.954C866.472 600.622 866.451 601.526 866.451 601.526Z" fill="#56D651"/>
<path d="M846.791 506.97C874.071 548.804 866.596 602.012 866.596 602.012C866.596 602.012 814.893 587.393 787.613 545.559C760.333 503.724 767.808 450.516 767.808 450.516C767.808 450.516 819.512 465.135 846.791 506.97Z" stroke="#3F3D56" stroke-width="2" stroke-miterlimit="10"/>
<path opacity="0.1" d="M866.444 598.954C865.723 599.823 865.088 600.565 864.565 601.173C863.406 602.494 862.749 603.186 862.749 603.186C862.749 603.186 861.951 602.183 860.609 600.304C853.24 590.032 829.537 553.506 831.367 511.315C831.466 509.104 831.629 506.916 831.855 504.752C833.246 506.235 834.601 507.773 835.917 509.365C863.654 542.817 866.239 587.827 866.444 598.954Z" fill="black"/>
<path d="M906.893 514.366C904.736 564.263 867.697 603.187 867.697 603.187C867.697 603.187 834.154 561.212 836.31 511.316C838.466 461.42 875.506 422.496 875.506 422.496C875.506 422.496 909.049 464.47 906.893 514.366Z" fill="#56D651"/>
<path d="M867.697 601.774L875.84 424.531" stroke="#3F3D56" stroke-width="2" stroke-miterlimit="10"/>
<path opacity="0.1" d="M609.012 474.959C586.052 485.399 556.482 484.659 556.482 484.659H524.482V478.549C537.522 474.909 555.552 472.659 575.482 472.659C586.699 472.62 597.905 473.389 609.012 474.959V474.959Z" fill="black"/>
</g>
</g>
<defs>
<linearGradient id="paint0_linear_4_38" x1="183.192" y1="276.589" x2="1000.76" y2="406.452" gradientUnits="userSpaceOnUse">
<stop stop-color="#57AC66"/>
<stop offset="1" stop-color="#314DB0"/>
</linearGradient>
<linearGradient id="paint1_linear_4_38" x1="67.3532" y1="377.125" x2="1024.55" y2="545.839" gradientUnits="userSpaceOnUse">
<stop stop-color="#3BDA57"/>
<stop offset="1" stop-color="#446AEF"/>
</linearGradient>
<clipPath id="clip0_4_38">
<rect width="1000" height="666.667" fill="white"/>
</clipPath>
<clipPath id="clip1_4_38">
<rect width="933.321" height="629.287" fill="white" transform="translate(33 -26)"/>
</clipPath>
</defs>
</svg>
