<svg width="1000" height="667" viewBox="0 0 1000 667" fill="none" xmlns="http://www.w3.org/2000/svg">
<rect width="1000" height="666.667" fill="none"/>
<path d="M897.607 603H101.778C96.3456 602.994 91.1373 600.832 87.2959 596.988C83.4545 593.144 81.2937 587.932 81.2876 582.496V91.4497C81.292 87.4672 82.875 83.649 85.6892 80.8328C88.5034 78.0166 92.319 76.4325 96.299 76.4279H902.826C906.875 76.4325 910.757 78.044 913.62 80.9089C916.483 83.7737 918.093 87.658 918.098 91.7094V582.496C918.092 587.932 915.931 593.144 912.089 596.988C908.248 600.832 903.04 602.994 897.607 603V603Z" fill="url(#paint0_linear_3_2)"/>
<path d="M917.812 94.0049H81V83.5659C81.0079 78.1117 83.1775 72.8834 87.0329 69.0279C90.8882 65.1723 96.1145 63.0045 101.565 63H897.247C902.698 63.0045 907.924 65.1723 911.779 69.0278C915.635 72.8833 917.804 78.1117 917.812 83.5659V94.0049Z" fill="black"/>
<path d="M118.374 83.8563C121.312 83.8563 123.693 81.4731 123.693 78.5334C123.693 75.5936 121.312 73.2105 118.374 73.2105C115.436 73.2105 113.055 75.5936 113.055 78.5334C113.055 81.4731 115.436 83.8563 118.374 83.8563Z" fill="white"/>
<path d="M138.565 83.8563C141.503 83.8563 143.885 81.4731 143.885 78.5334C143.885 75.5936 141.503 73.2105 138.565 73.2105C135.627 73.2105 133.246 75.5936 133.246 78.5334C133.246 81.4731 135.627 83.8563 138.565 83.8563Z" fill="white"/>
<path d="M158.756 83.8563C161.694 83.8563 164.076 81.4731 164.076 78.5334C164.076 75.5936 161.694 73.2105 158.756 73.2105C155.818 73.2105 153.437 75.5936 153.437 78.5334C153.437 81.4731 155.818 83.8563 158.756 83.8563Z" fill="white"/>
<path d="M215.09 227.12L165.09 205.245V178.097L237.063 213.839V233.37L215.09 227.12ZM165.09 245.187L215.09 222.921L237.063 217.257V236.788L165.09 272.335V245.187ZM305.911 227.12L255.911 205.245V178.097L327.883 213.839V233.37L305.911 227.12ZM255.911 245.187L305.911 222.921L327.883 217.257V236.788L255.911 272.335V245.187ZM396.731 227.12L346.731 205.245V178.097L418.704 213.839V233.37L396.731 227.12ZM346.731 245.187L396.731 222.921L418.704 217.257V236.788L346.731 272.335V245.187Z" fill="white"/>
<path d="M830.75 387.46C854.349 387.46 873.479 368.329 873.479 344.73C873.479 321.131 854.349 302 830.75 302C807.151 302 788.02 321.131 788.02 344.73C788.02 368.329 807.151 387.46 830.75 387.46Z" fill="#56D651"/>
<path d="M758.12 488.024C781.719 488.024 800.85 468.893 800.85 445.294C800.85 421.695 781.719 402.564 758.12 402.564C734.521 402.564 715.39 421.695 715.39 445.294C715.39 468.893 734.521 488.024 758.12 488.024Z" fill="#56D651"/>
<path d="M668.73 568.335C692.329 568.335 711.46 549.205 711.46 525.605C711.46 502.006 692.329 482.876 668.73 482.876C645.131 482.876 626 502.006 626 525.605C626 549.205 645.131 568.335 668.73 568.335Z" fill="#56D651"/>
<path d="M668.692 602.881V525.37" stroke="#3F3D56" stroke-width="2" stroke-miterlimit="10"/>
<path d="M668.692 536.331C674.745 536.331 679.653 531.424 679.653 525.37C679.653 519.317 674.745 514.409 668.692 514.409C662.638 514.409 657.731 519.317 657.731 525.37C657.731 531.424 662.638 536.331 668.692 536.331Z" fill="#3F3D56"/>
<path d="M668.692 573.142C668.692 573.142 667.126 539.463 635.026 543.378Z" fill="#3F3D56"/>
<path d="M830.777 603.424V344.887" stroke="#3F3D56" stroke-width="2" stroke-miterlimit="10"/>
<path d="M830.777 355.725C836.83 355.725 841.738 350.818 841.738 344.764C841.738 338.711 836.83 333.803 830.777 333.803C824.723 333.803 819.815 338.711 819.815 344.764C819.815 350.818 824.723 355.725 830.777 355.725Z" fill="#3F3D56"/>
<path d="M797.11 542.779C803.164 542.779 808.072 537.871 808.072 531.818C808.072 525.764 803.164 520.857 797.11 520.857C791.057 520.857 786.149 525.764 786.149 531.818C786.149 537.871 791.057 542.779 797.11 542.779Z" fill="#3F3D56"/>
<path d="M830.777 400.754C830.777 400.754 829.211 367.075 797.111 370.99Z" fill="#3F3D56"/>
<path d="M830.777 496.228C830.777 496.228 829.211 462.55 797.111 466.464Z" fill="#3F3D56"/>
<path d="M830.777 600.411C830.777 600.411 837.823 534.949 797.111 531.818" stroke="#3F3D56" stroke-width="2" stroke-miterlimit="10"/>
<path d="M864.447 542.779C870.501 542.779 875.408 537.871 875.408 531.818C875.408 525.764 870.501 520.857 864.447 520.857C858.394 520.857 853.486 525.764 853.486 531.818C853.486 537.871 858.394 542.779 864.447 542.779Z" fill="#3F3D56"/>
<path d="M830.781 600.411C830.781 600.411 823.735 534.949 864.447 531.818" stroke="#3F3D56" stroke-width="2" stroke-miterlimit="10"/>
<path d="M865.115 439.96C871.169 439.96 876.076 435.053 876.076 428.999C876.076 422.945 871.169 418.038 865.115 418.038C859.061 418.038 854.154 422.945 854.154 428.999C854.154 435.053 859.061 439.96 865.115 439.96Z" fill="#3F3D56"/>
<path d="M831.449 494.101C831.449 494.101 824.403 432.131 865.115 428.999" stroke="#3F3D56" stroke-width="2" stroke-miterlimit="10"/>
<path d="M758.159 603.06V445.246" stroke="#3F3D56" stroke-width="2" stroke-miterlimit="10"/>
<path d="M758.159 456.207C764.213 456.207 769.12 451.3 769.12 445.246C769.12 439.192 764.213 434.285 758.159 434.285C752.105 434.285 747.198 439.192 747.198 445.246C747.198 451.3 752.105 456.207 758.159 456.207Z" fill="#3F3D56"/>
<path d="M758.159 489.885C758.159 489.885 756.593 456.207 724.493 460.122Z" fill="#3F3D56"/>
<path d="M758.159 600.047C758.159 600.047 765.205 535.283 724.493 532.151" stroke="#3F3D56" stroke-width="2" stroke-miterlimit="10"/>
<path d="M724.493 543.112C730.547 543.112 735.454 538.205 735.454 532.151C735.454 526.098 730.547 521.19 724.493 521.19C718.439 521.19 713.532 526.098 713.532 532.151C713.532 538.205 718.439 543.112 724.493 543.112Z" fill="#3F3D56"/>
<defs>
<linearGradient id="paint0_linear_3_2" x1="42.0065" y1="18.0985" x2="917.586" y2="627.814" gradientUnits="userSpaceOnUse">
<stop stop-color="#3BDA57"/>
<stop offset="1" stop-color="#446AEF"/>
</linearGradient>
</defs>
</svg>
