<svg width="1000" height="667" viewBox="0 0 1000 667" fill="none" xmlns="http://www.w3.org/2000/svg">
<rect width="1000" height="666.667" fill="none"/>
<g clip-path="url(#clip0_4_203)">
<path d="M118.909 503.086C93.4788 493.841 71.4034 471.724 68.603 444.825C93.2906 460.832 122.848 467.596 152.045 463.92C163.3 462.461 175.666 459.668 185.298 465.668C191.291 469.401 195.011 476.03 196.718 482.878C198.424 489.726 198.347 496.875 198.26 503.932L199.052 505.507C172.487 510.66 144.34 512.332 118.909 503.086Z" fill="#56D651"/>
<path d="M69.1548 444.691C82.1142 462.949 100.501 476.662 121.702 483.882C126.239 485.517 131.005 486.428 135.825 486.58C140.526 486.576 145.139 485.315 149.187 482.927C153.006 480.775 156.663 478.133 160.938 476.947C163.136 476.373 165.43 476.269 167.67 476.643C169.911 477.017 172.047 477.859 173.939 479.116C178.734 482.125 182.161 486.676 185.358 491.243C188.907 496.314 192.514 501.637 198.055 504.716C198.726 505.089 198.108 506.108 197.437 505.736C187.797 500.38 184.228 489.019 176.022 482.113C172.193 478.89 167.37 476.801 162.309 477.842C157.885 478.753 154.111 481.474 150.263 483.685C146.349 486.073 141.909 487.466 137.332 487.744C132.519 487.838 127.726 487.112 123.157 485.599C112.816 482.355 103.05 477.507 94.2166 471.232C84.0951 464.126 75.2644 455.342 68.1067 445.26C67.6639 444.636 68.7149 444.071 69.1548 444.691V444.691Z" fill="white"/>
<path d="M114.738 481.959C113.043 485.349 110.198 488.027 106.709 489.515C103.221 491.002 99.3173 491.201 95.6953 490.078C94.9632 489.848 95.2863 488.7 96.0194 488.93C99.3902 489.983 103.027 489.797 106.272 488.405C109.518 487.014 112.158 484.508 113.718 481.342C114.058 480.654 115.076 481.275 114.738 481.959V481.959Z" fill="white"/>
<path d="M147.395 484.272C145.007 476.901 139.926 470.7 133.167 466.906C132.497 466.53 133.115 465.511 133.784 465.886C140.811 469.847 146.085 476.311 148.553 483.987C148.787 484.719 147.628 485 147.395 484.272Z" fill="white"/>
<path d="M85.4435 463.3C86.3728 462.125 86.9956 460.737 87.2557 459.262C87.5159 457.787 87.4053 456.27 86.934 454.848C86.6901 454.119 87.8498 453.839 88.0921 454.563C88.6055 456.137 88.7256 457.812 88.4417 459.442C88.1579 461.073 87.4789 462.609 86.4639 463.917C86.3786 464.048 86.2464 464.142 86.0943 464.18C85.9422 464.217 85.7815 464.195 85.645 464.119C85.5103 464.036 85.4136 463.904 85.3758 463.751C85.3381 463.598 85.3624 463.436 85.4435 463.3V463.3Z" fill="white"/>
<path d="M132.786 379.479C132.952 379.929 133.117 380.38 133.292 380.833C135.545 386.879 138.286 392.732 141.487 398.334C141.728 398.771 141.978 399.21 142.231 399.64C150.088 413.054 160.368 424.895 172.55 434.559C177.401 438.4 182.537 441.866 187.914 444.929C195.341 449.157 203.73 453.152 209.164 459.401C209.739 460.047 210.273 460.728 210.763 461.439L200.912 504.419C200.841 504.505 200.779 504.595 200.707 504.682L200.393 506.416C200.104 506.277 199.808 506.127 199.52 505.988C199.352 505.909 199.187 505.82 199.019 505.74C198.908 505.684 198.797 505.627 198.694 505.583C198.657 505.564 198.62 505.545 198.593 505.529C198.489 505.484 198.398 505.432 198.304 505.39C196.647 504.557 194.992 503.71 193.341 502.851C193.331 502.848 193.331 502.848 193.323 502.837C180.677 496.407 168.838 488.5 158.055 479.283C157.737 479.003 157.409 478.722 157.096 478.423C152.353 474.212 147.962 469.621 143.967 464.695C141.789 461.99 139.749 459.178 137.855 456.267C132.975 448.737 129.311 440.488 126.997 431.82C122.386 414.541 123.356 395.98 132.106 380.644C132.331 380.252 132.553 379.869 132.786 379.479Z" fill="#446AEF"/>
<path d="M133.31 379.7C132.658 402.076 139.078 424.089 151.656 442.611C154.293 446.646 157.551 450.241 161.308 453.263C165.063 456.088 169.506 457.857 174.177 458.386C178.522 458.966 183.034 459.057 187.162 460.683C189.262 461.546 191.157 462.844 192.72 464.49C194.284 466.137 195.482 468.095 196.235 470.237C198.251 475.524 198.246 481.22 198.047 486.79C197.826 492.975 197.499 499.395 200.069 505.187C200.38 505.889 199.272 506.331 198.961 505.63C194.491 495.553 198.485 484.334 196.094 473.883C194.978 469.006 192.385 464.435 187.718 462.222C183.636 460.286 178.984 460.189 174.579 459.639C170.016 459.19 165.631 457.631 161.809 455.099C157.91 452.278 154.52 448.814 151.784 444.857C145.481 436.045 140.604 426.298 137.331 415.972C133.531 404.208 131.772 391.881 132.13 379.524C132.153 378.76 133.332 378.941 133.31 379.701L133.31 379.7Z" fill="white"/>
<path d="M147.255 436.885C143.859 438.572 139.973 438.998 136.292 438.087C132.611 437.175 129.374 434.986 127.159 431.909C126.713 431.285 127.662 430.563 128.109 431.188C130.166 434.057 133.182 436.096 136.611 436.938C140.041 437.779 143.659 437.368 146.812 435.778C147.497 435.434 147.936 436.542 147.255 436.885V436.885Z" fill="white"/>
<path d="M171.935 458.381C174.469 451.059 174.149 443.051 171.037 435.954C170.728 435.252 171.836 434.81 172.145 435.512C175.368 442.903 175.685 451.237 173.031 458.851C172.778 459.576 171.683 459.103 171.935 458.381Z" fill="white"/>
<path d="M135.105 404.36C136.555 403.981 137.888 403.248 138.985 402.226C140.081 401.205 140.907 399.927 141.387 398.508C141.631 397.78 142.726 398.254 142.483 398.978C141.945 400.543 141.032 401.953 139.823 403.084C138.614 404.215 137.146 405.033 135.548 405.467C135.401 405.52 135.239 405.516 135.095 405.454C134.951 405.392 134.836 405.278 134.773 405.135C134.715 404.988 134.717 404.824 134.779 404.679C134.842 404.534 134.959 404.419 135.105 404.36H135.105Z" fill="white"/>
<path d="M888.623 502.199C912.724 489.899 931.911 465.238 931.382 438.199C908.85 457.117 880.349 467.461 850.921 467.399C839.572 467.335 826.956 466.082 818.136 473.219C812.648 477.66 809.771 484.696 808.919 491.702C808.068 498.708 809.023 505.793 809.978 512.786L809.386 514.445C836.383 516.297 864.522 514.498 888.623 502.199Z" fill="#56D651"/>
<path d="M930.818 438.134C920.202 457.845 903.642 473.713 883.489 483.483C879.188 485.663 874.57 487.152 869.805 487.895C865.14 488.469 860.406 487.784 856.095 485.911C852.041 484.245 848.087 482.072 843.698 481.421C841.446 481.121 839.157 481.299 836.979 481.946C834.802 482.592 832.785 483.691 831.063 485.17C826.674 488.745 823.833 493.683 821.222 498.608C818.323 504.076 815.398 509.802 810.278 513.538C809.658 513.991 810.397 514.926 811.016 514.474C819.925 507.975 822.07 496.262 829.364 488.4C832.767 484.731 837.297 482.065 842.447 482.477C846.95 482.837 851.03 485.074 855.12 486.796C859.299 488.685 863.876 489.522 868.453 489.235C873.241 488.737 877.908 487.429 882.257 485.365C892.12 480.876 901.216 474.865 909.211 467.552C918.381 459.257 926.065 449.455 931.928 438.57C932.291 437.896 931.178 437.464 930.818 438.134V438.134Z" fill="white"/>
<path d="M890.164 480.719C892.263 483.875 895.416 486.184 899.061 487.231C902.706 488.278 906.605 487.997 910.061 486.437C910.759 486.119 910.297 485.019 909.598 485.338C906.382 486.797 902.751 487.058 899.359 486.076C895.967 485.094 893.038 482.932 891.1 479.981C890.679 479.34 889.744 480.082 890.164 480.719Z" fill="white"/>
<path d="M858.04 487.026C859.503 479.417 863.782 472.639 870.024 468.044C870.642 467.589 869.904 466.653 869.286 467.107C862.799 471.902 858.361 478.965 856.855 486.886C856.712 487.641 857.898 487.777 858.04 487.026H858.04Z" fill="white"/>
<path d="M916.942 458.603C915.875 457.551 915.086 456.25 914.647 454.818C914.207 453.386 914.13 451.867 914.423 450.398C914.575 449.645 913.39 449.509 913.239 450.257C912.923 451.882 913.009 453.559 913.492 455.143C913.974 456.726 914.837 458.167 916.005 459.341C916.106 459.46 916.248 459.537 916.404 459.556C916.56 459.574 916.716 459.533 916.842 459.44C916.966 459.342 917.046 459.199 917.064 459.042C917.083 458.885 917.039 458.727 916.942 458.603H916.942Z" fill="white"/>
<path d="M859.648 381.233C859.54 381.701 859.431 382.168 859.313 382.639C857.821 388.916 855.821 395.061 853.333 401.014C853.148 401.477 852.953 401.944 852.755 402.401C846.608 416.679 837.862 429.693 826.961 440.78C822.619 445.188 817.948 449.259 812.988 452.959C806.138 458.068 798.305 463.062 793.679 469.932C793.189 470.644 792.743 471.385 792.344 472.151L807.406 513.595C807.487 513.672 807.56 513.753 807.641 513.83L808.167 515.512C808.436 515.339 808.712 515.154 808.981 514.981C809.137 514.881 809.29 514.773 809.447 514.673C809.55 514.604 809.653 514.534 809.751 514.477C809.785 514.454 809.819 514.431 809.844 514.411C809.942 514.354 810.026 514.291 810.114 514.238C811.656 513.207 813.194 512.164 814.727 511.108C814.736 511.105 814.736 511.105 814.742 511.092C826.502 503.157 837.279 493.856 846.846 483.384C847.127 483.068 847.418 482.748 847.693 482.413C851.882 477.651 855.675 472.555 859.033 467.176C860.863 464.225 862.541 461.183 864.063 458.061C867.979 449.99 870.601 441.352 871.832 432.466C874.282 414.751 871.037 396.45 860.467 382.306C860.196 381.944 859.929 381.591 859.648 381.233Z" fill="#446AEF"/>
<path d="M859.156 381.517C862.555 403.644 858.892 426.277 848.686 446.204C846.566 450.533 843.775 454.501 840.418 457.961C837.039 461.226 832.847 463.528 828.277 464.626C824.036 465.736 819.57 466.38 815.673 468.501C813.694 469.616 811.974 471.136 810.625 472.962C809.275 474.788 808.327 476.879 807.843 479.097C806.493 484.592 807.199 490.244 808.081 495.748C809.061 501.858 810.175 508.19 808.338 514.253C808.115 514.988 809.269 515.29 809.491 514.557C812.688 504.007 807.345 493.364 808.432 482.698C808.939 477.721 810.951 472.866 815.311 470.096C819.123 467.674 823.728 467.006 828.032 465.92C832.506 464.913 836.665 462.828 840.146 459.845C843.669 456.566 846.607 452.713 848.836 448.449C854.007 438.93 857.648 428.657 859.626 418.008C861.951 405.866 862.181 393.417 860.305 381.198C860.189 380.441 859.04 380.766 859.156 381.517V381.517Z" fill="white"/>
<path d="M852.35 439.981C855.928 441.239 859.836 441.184 863.378 439.827C866.919 438.47 869.862 435.9 871.682 432.574C872.048 431.9 871.017 431.3 870.65 431.975C868.962 435.075 866.22 437.469 862.919 438.726C859.619 439.983 855.978 440.019 852.654 438.829C851.931 438.571 851.632 439.725 852.35 439.981V439.981Z" fill="white"/>
<path d="M830.501 464.346C827.085 457.391 826.419 449.404 828.634 441.979C828.854 441.244 827.7 440.941 827.48 441.676C825.19 449.407 825.901 457.717 829.471 464.947C829.811 465.636 830.84 465.032 830.501 464.346V464.346Z" fill="white"/>
<path d="M860.408 406.21C858.922 406.012 857.509 405.448 856.295 404.569C855.081 403.69 854.105 402.524 853.454 401.175C853.122 400.482 852.094 401.087 852.423 401.775C853.15 403.263 854.23 404.549 855.569 405.524C856.907 406.498 858.465 407.129 860.104 407.363C860.257 407.398 860.417 407.374 860.553 407.295C860.688 407.216 860.788 407.088 860.833 406.938C860.872 406.786 860.85 406.623 860.77 406.487C860.691 406.351 860.56 406.251 860.408 406.21V406.21Z" fill="white"/>
<path d="M820.605 125.702H650.808V136.619C650.805 137.178 650.997 137.72 651.351 138.153C651.009 146.686 650.808 157.579 650.808 169.416V461.27C650.808 488.627 651.906 510.884 653.252 510.884H818.161C819.508 510.884 820.606 488.627 820.606 461.27V169.416C820.606 157.579 820.405 146.686 820.062 138.153C820.416 137.72 820.608 137.178 820.606 136.619L820.605 125.702Z" fill="black"/>
<path d="M818.161 512.065H653.252C651.967 512.065 651.118 512.065 650.346 496.394C649.882 486.99 649.627 474.516 649.627 461.27V169.416C649.627 157.975 649.82 146.856 650.171 138.106C650.391 132.852 650.643 128.644 650.919 125.596C651.462 119.629 651.978 118.621 653.252 118.621H818.161C819.436 118.621 819.951 119.629 820.494 125.596C820.771 128.655 821.023 132.864 821.242 138.103L821.242 138.106C821.593 146.847 821.786 157.966 821.786 169.416V461.27C821.786 474.517 821.531 486.991 821.067 496.394C820.295 512.065 819.446 512.065 818.161 512.065ZM653.923 509.704H817.49C818.345 506.479 819.424 488.968 819.424 461.27V169.416C819.424 157.997 819.232 146.913 818.882 138.203H818.882C818.665 133 818.416 128.83 818.142 125.809C818.037 124.186 817.815 122.573 817.479 120.982H653.934C653.598 122.573 653.377 124.186 653.271 125.809C652.998 128.819 652.749 132.989 652.531 138.203C652.181 146.92 651.988 158.006 651.988 169.416V461.27C651.988 488.968 653.068 506.479 653.923 509.704Z" fill="#E4E4E4"/>
<path d="M818.161 119.801H653.252C652.604 119.803 651.983 120.061 651.525 120.518C651.067 120.976 650.809 121.597 650.808 122.244V136.619C650.805 137.178 650.997 137.72 651.351 138.153C651.581 138.436 651.87 138.664 652.199 138.822C652.528 138.979 652.888 139.061 653.252 139.062H818.161C818.526 139.061 818.885 138.979 819.214 138.821C819.543 138.664 819.833 138.436 820.062 138.153C820.416 137.72 820.608 137.178 820.605 136.619V122.244C820.604 121.597 820.346 120.976 819.888 120.518C819.43 120.061 818.809 119.803 818.161 119.801V119.801Z" fill="black"/>
<path d="M665.001 132.199C666.919 132.199 668.473 130.646 668.473 128.73C668.473 126.814 666.919 125.261 665.001 125.261C663.084 125.261 661.53 126.814 661.53 128.73C661.53 130.646 663.084 132.199 665.001 132.199Z" fill="white"/>
<path d="M678.177 132.199C680.095 132.199 681.649 130.646 681.649 128.73C681.649 126.814 680.095 125.261 678.177 125.261C676.26 125.261 674.706 126.814 674.706 128.73C674.706 130.646 676.26 132.199 678.177 132.199Z" fill="white"/>
<path d="M691.354 132.199C693.271 132.199 694.825 130.646 694.825 128.73C694.825 126.814 693.271 125.261 691.354 125.261C689.437 125.261 687.883 126.814 687.883 128.73C687.883 130.646 689.437 132.199 691.354 132.199Z" fill="white"/>
<path d="M805.254 124.097H790.08C789.783 124.099 789.499 124.218 789.289 124.428C789.079 124.638 788.96 124.922 788.958 125.219C788.954 125.387 788.994 125.555 789.076 125.702C789.166 125.892 789.308 126.053 789.486 126.166C789.663 126.279 789.869 126.339 790.08 126.34H805.254C805.466 126.341 805.675 126.281 805.855 126.169C806.034 126.056 806.178 125.894 806.27 125.702C806.342 125.552 806.379 125.386 806.376 125.219C806.376 125.071 806.347 124.925 806.291 124.789C806.234 124.653 806.152 124.53 806.047 124.426C805.943 124.321 805.82 124.239 805.683 124.183C805.547 124.126 805.401 124.097 805.254 124.097V124.097Z" fill="white"/>
<path d="M805.254 128.311H790.08C789.782 128.311 789.497 128.429 789.286 128.639C789.076 128.849 788.958 129.134 788.958 129.432C788.958 129.729 789.076 130.014 789.286 130.224C789.497 130.435 789.782 130.553 790.08 130.553H805.254C805.551 130.553 805.837 130.435 806.047 130.224C806.258 130.014 806.376 129.729 806.376 129.432C806.376 129.134 806.258 128.849 806.047 128.639C805.837 128.429 805.551 128.311 805.254 128.311V128.311Z" fill="white"/>
<path d="M805.254 132.524H790.08C789.782 132.524 789.497 132.642 789.286 132.852C789.076 133.062 788.958 133.348 788.958 133.645C788.958 133.942 789.076 134.227 789.286 134.438C789.497 134.648 789.782 134.766 790.08 134.766H805.254C805.551 134.766 805.837 134.648 806.047 134.438C806.258 134.227 806.376 133.942 806.376 133.645C806.376 133.348 806.258 133.062 806.047 132.852C805.837 132.642 805.551 132.524 805.254 132.524V132.524Z" fill="white"/>
<path d="M752.115 170.572H720.892C719.327 170.573 717.825 171.195 716.718 172.301C715.611 173.408 714.989 174.908 714.988 176.473V203.499C714.991 205.063 715.614 206.562 716.72 207.668C717.827 208.775 719.327 209.397 720.892 209.4H752.115C753.679 209.395 755.178 208.772 756.285 207.666C757.391 206.561 758.014 205.062 758.019 203.499V176.473C758.016 174.909 757.394 173.409 756.287 172.303C755.18 171.197 753.68 170.575 752.115 170.572Z" fill="#3BDA57"/>
<path d="M790.906 227.055H682.089C681.378 227.055 680.696 227.337 680.194 227.839C679.691 228.342 679.408 229.023 679.408 229.734C679.408 230.444 679.691 231.126 680.194 231.628C680.696 232.131 681.378 232.413 682.089 232.413H790.906C791.617 232.413 792.299 232.131 792.802 231.628C793.305 231.126 793.587 230.444 793.587 229.734C793.587 229.023 793.305 228.342 792.802 227.839C792.299 227.337 791.617 227.055 790.906 227.055V227.055Z" fill="#E4E4E4"/>
<path d="M723.42 239.612H682.089C681.378 239.612 680.696 239.894 680.194 240.397C679.691 240.899 679.408 241.58 679.408 242.291C679.408 243.001 679.691 243.683 680.194 244.185C680.696 244.688 681.378 244.97 682.089 244.97H723.42C724.131 244.97 724.812 244.688 725.315 244.185C725.818 243.683 726.1 243.001 726.1 242.291C726.1 241.58 725.818 240.899 725.315 240.397C724.812 239.894 724.131 239.612 723.42 239.612V239.612Z" fill="#E4E4E4"/>
<path d="M752.115 287.409H720.892C719.327 287.409 717.825 288.031 716.718 289.138C715.611 290.244 714.989 291.745 714.988 293.309V320.335C714.991 321.899 715.614 323.399 716.72 324.505C717.827 325.611 719.327 326.233 720.892 326.236H752.115C753.679 326.231 755.178 325.608 756.285 324.503C757.391 323.397 758.014 321.899 758.019 320.335V293.309C758.016 291.745 757.394 290.246 756.287 289.14C755.18 288.034 753.68 287.411 752.115 287.409Z" fill="#3BDA57"/>
<path d="M790.906 343.891H682.089C681.378 343.891 680.696 344.173 680.194 344.676C679.691 345.178 679.408 345.86 679.408 346.57C679.408 347.281 679.691 347.962 680.194 348.464C680.696 348.967 681.378 349.249 682.089 349.249H790.906C791.617 349.249 792.299 348.967 792.802 348.464C793.305 347.962 793.587 347.281 793.587 346.57C793.587 345.86 793.305 345.178 792.802 344.676C792.299 344.173 791.617 343.891 790.906 343.891V343.891Z" fill="#E4E4E4"/>
<path d="M723.42 356.448H682.089C681.378 356.448 680.696 356.73 680.194 357.233C679.691 357.735 679.408 358.417 679.408 359.127C679.408 359.838 679.691 360.519 680.194 361.021C680.696 361.524 681.378 361.806 682.089 361.806H723.42C724.131 361.806 724.812 361.524 725.315 361.021C725.818 360.519 726.1 359.838 726.1 359.127C726.1 358.417 725.818 357.735 725.315 357.233C724.812 356.73 724.131 356.448 723.42 356.448V356.448Z" fill="#E4E4E4"/>
<path d="M752.115 404.245H720.892C719.327 404.245 717.825 404.867 716.718 405.974C715.611 407.08 714.989 408.581 714.988 410.146V437.171C714.991 438.736 715.614 440.235 716.72 441.341C717.827 442.447 719.327 443.07 720.892 443.072H752.115C753.679 443.068 755.178 442.444 756.285 441.339C757.391 440.233 758.014 438.735 758.019 437.171V410.146C758.016 408.581 757.394 407.082 756.287 405.976C755.18 404.87 753.68 404.247 752.115 404.245V404.245Z" fill="#3BDA57"/>
<path d="M790.906 460.727H682.089C681.378 460.727 680.696 461.01 680.194 461.512C679.691 462.014 679.408 462.696 679.408 463.406C679.408 464.117 679.691 464.798 680.194 465.301C680.696 465.803 681.378 466.085 682.089 466.085H790.906C791.617 466.085 792.299 465.803 792.802 465.301C793.305 464.798 793.587 464.117 793.587 463.406C793.587 462.696 793.305 462.014 792.802 461.512C792.299 461.01 791.617 460.727 790.906 460.727V460.727Z" fill="#E4E4E4"/>
<path d="M723.42 473.284H682.089C681.378 473.284 680.696 473.567 680.194 474.069C679.691 474.571 679.408 475.253 679.408 475.963C679.408 476.674 679.691 477.355 680.194 477.858C680.696 478.36 681.378 478.642 682.089 478.642H723.42C724.131 478.642 724.812 478.36 725.315 477.858C725.818 477.355 726.1 476.674 726.1 475.963C726.1 475.253 725.818 474.571 725.315 474.069C724.812 473.567 724.131 473.284 723.42 473.284Z" fill="#E4E4E4"/>
<path d="M604.505 111.623C604.504 110.975 604.246 110.355 603.788 109.897C603.33 109.439 602.709 109.181 602.061 109.18H165.551C164.903 109.181 164.282 109.439 163.824 109.897C163.366 110.355 163.108 110.975 163.107 111.623V125.997C163.105 126.596 163.328 127.173 163.733 127.614C163.343 137.374 163.107 150.238 163.107 164.329V488.768C163.107 519.193 164.205 543.929 165.551 543.929H602.061C603.408 543.929 604.505 519.193 604.505 488.768V164.329C604.505 150.238 604.27 137.374 603.88 127.614C604.284 127.173 604.508 126.596 604.505 125.997V111.623Z" fill="black"/>
<path d="M602.061 545.109H165.551C164.217 545.109 163.411 545.109 162.644 527.81C162.181 517.36 161.926 503.495 161.926 488.768V164.329C161.926 150.749 162.148 137.693 162.553 127.567C163.329 108 164.213 108 165.551 108H602.061C603.399 108 604.283 108.003 605.06 127.567C605.464 137.684 605.686 150.739 605.686 164.329V488.768C605.686 503.495 605.431 517.36 604.968 527.81C604.201 545.109 603.395 545.109 602.061 545.109ZM166.241 542.749H601.372C602.338 539.049 603.325 518.272 603.325 488.768V164.329C603.325 150.77 603.103 137.747 602.7 127.662V127.661C602.208 115.265 601.634 111.493 601.359 110.36H166.253C165.979 111.493 165.405 115.265 164.913 127.661C164.509 137.757 164.287 150.779 164.287 164.329V488.768C164.287 518.272 165.274 539.048 166.241 542.749V542.749Z" fill="#E4E4E4"/>
<path d="M602.061 109.18H165.551C164.903 109.181 164.282 109.439 163.824 109.897C163.366 110.355 163.108 110.975 163.107 111.623V125.997C163.105 126.596 163.328 127.173 163.733 127.614C163.96 127.873 164.239 128.081 164.553 128.223C164.866 128.366 165.207 128.44 165.551 128.44H602.061C602.406 128.44 602.746 128.366 603.06 128.223C603.373 128.081 603.653 127.873 603.88 127.614C604.284 127.173 604.508 126.596 604.505 125.997V111.623C604.504 110.975 604.246 110.355 603.788 109.897C603.33 109.439 602.709 109.181 602.061 109.18V109.18Z" fill="black"/>
<path d="M177.301 121.578C179.218 121.578 180.772 120.025 180.772 118.109C180.772 116.193 179.218 114.639 177.301 114.639C175.383 114.639 173.829 116.193 173.829 118.109C173.829 120.025 175.383 121.578 177.301 121.578Z" fill="white"/>
<path d="M190.477 121.578C192.394 121.578 193.948 120.025 193.948 118.109C193.948 116.193 192.394 114.639 190.477 114.639C188.559 114.639 187.005 116.193 187.005 118.109C187.005 120.025 188.559 121.578 190.477 121.578Z" fill="white"/>
<path d="M203.653 121.578C205.57 121.578 207.125 120.025 207.125 118.109C207.125 116.193 205.57 114.639 203.653 114.639C201.736 114.639 200.182 116.193 200.182 118.109C200.182 120.025 201.736 121.578 203.653 121.578Z" fill="white"/>
<path d="M589.154 113.476H573.98C573.682 113.476 573.397 113.594 573.186 113.804C572.976 114.015 572.858 114.3 572.858 114.597C572.858 114.894 572.976 115.18 573.186 115.39C573.397 115.6 573.682 115.718 573.98 115.718H589.154C589.452 115.718 589.737 115.6 589.947 115.39C590.158 115.18 590.276 114.894 590.276 114.597C590.276 114.3 590.158 114.015 589.947 113.804C589.737 113.594 589.452 113.476 589.154 113.476Z" fill="white"/>
<path d="M589.154 117.689H573.98C573.682 117.689 573.397 117.807 573.186 118.017C572.976 118.228 572.858 118.513 572.858 118.81C572.858 119.108 572.976 119.393 573.186 119.603C573.397 119.813 573.682 119.931 573.98 119.931H589.154C589.452 119.931 589.737 119.813 589.947 119.603C590.158 119.393 590.276 119.108 590.276 118.81C590.276 118.513 590.158 118.228 589.947 118.017C589.737 117.807 589.452 117.689 589.154 117.689V117.689Z" fill="white"/>
<path d="M589.154 121.902H573.98C573.682 121.902 573.397 122.02 573.186 122.231C572.976 122.441 572.858 122.726 572.858 123.023C572.858 123.321 572.976 123.606 573.186 123.816C573.397 124.026 573.682 124.145 573.98 124.145H589.154C589.452 124.145 589.737 124.026 589.947 123.816C590.158 123.606 590.276 123.321 590.276 123.023C590.276 122.726 590.158 122.441 589.947 122.231C589.737 122.02 589.452 121.902 589.154 121.902V121.902Z" fill="white"/>
<path d="M306.642 181.194H255.557C252.996 181.197 250.541 182.215 248.731 184.025C246.92 185.834 245.901 188.288 245.898 190.847V235.068C245.901 237.628 246.92 240.081 248.731 241.891C250.541 243.701 252.996 244.719 255.557 244.722H306.642C309.203 244.719 311.658 243.701 313.469 241.891C315.28 240.081 316.298 237.628 316.301 235.068V190.847C316.298 188.288 315.28 185.834 313.469 184.025C311.658 182.215 309.203 181.197 306.642 181.194V181.194Z" fill="#3BDA57"/>
<path d="M517.345 198.294H339.293C338.13 198.294 337.014 198.756 336.191 199.578C335.368 200.401 334.906 201.516 334.906 202.679C334.906 203.841 335.368 204.957 336.191 205.779C337.014 206.601 338.13 207.063 339.293 207.063H517.345C518.509 207.063 519.624 206.601 520.447 205.779C521.27 204.957 521.732 203.841 521.732 202.679C521.732 201.516 521.27 200.401 520.447 199.578C519.624 198.756 518.509 198.294 517.345 198.294V198.294Z" fill="#E4E4E4"/>
<path d="M406.922 218.841H339.293C338.13 218.841 337.014 219.303 336.191 220.125C335.368 220.947 334.906 222.062 334.906 223.225C334.906 224.388 335.368 225.503 336.191 226.325C337.014 227.148 338.13 227.609 339.293 227.609H406.922C408.085 227.609 409.201 227.148 410.024 226.325C410.847 225.503 411.309 224.388 411.309 223.225C411.309 222.062 410.847 220.947 410.024 220.125C409.201 219.303 408.085 218.841 406.922 218.841V218.841Z" fill="#E4E4E4"/>
<path d="M306.642 299.21H255.557C252.996 299.213 250.541 300.231 248.731 302.041C246.92 303.851 245.901 306.305 245.898 308.864V353.085C245.901 355.644 246.92 358.098 248.731 359.907C250.541 361.717 252.996 362.735 255.557 362.738H306.642C309.203 362.735 311.658 361.717 313.469 359.907C315.28 358.098 316.298 355.644 316.301 353.085V308.864C316.298 306.305 315.28 303.851 313.469 302.041C311.658 300.231 309.203 299.213 306.642 299.21V299.21Z" fill="#3BDA57"/>
<path d="M517.345 316.311H339.293C338.13 316.311 337.014 316.773 336.191 317.595C335.368 318.417 334.906 319.532 334.906 320.695C334.906 321.858 335.368 322.973 336.191 323.795C337.014 324.617 338.13 325.079 339.293 325.079H517.345C518.509 325.079 519.624 324.617 520.447 323.795C521.27 322.973 521.732 321.858 521.732 320.695C521.732 319.532 521.27 318.417 520.447 317.595C519.624 316.773 518.509 316.311 517.345 316.311V316.311Z" fill="#E4E4E4"/>
<path d="M406.922 336.857H339.293C338.13 336.857 337.014 337.319 336.191 338.141C335.368 338.964 334.906 340.079 334.906 341.242C334.906 342.404 335.368 343.52 336.191 344.342C337.014 345.164 338.13 345.626 339.293 345.626H406.922C408.085 345.626 409.201 345.164 410.024 344.342C410.847 343.52 411.309 342.404 411.309 341.242C411.309 340.079 410.847 338.964 410.024 338.141C409.201 337.319 408.085 336.857 406.922 336.857V336.857Z" fill="#E4E4E4"/>
<path d="M306.642 417.227H255.557C252.996 417.23 250.541 418.248 248.731 420.058C246.92 421.867 245.901 424.321 245.898 426.88V471.101C245.901 473.66 246.92 476.114 248.731 477.924C250.541 479.734 252.996 480.752 255.557 480.755H306.642C309.203 480.752 311.658 479.734 313.469 477.924C315.28 476.114 316.298 473.66 316.301 471.101V426.88C316.298 424.321 315.28 421.867 313.469 420.058C311.658 418.248 309.203 417.23 306.642 417.227Z" fill="#3BDA57"/>
<path d="M517.345 434.327H339.293C338.13 434.327 337.014 434.789 336.191 435.611C335.368 436.434 334.906 437.549 334.906 438.711C334.906 439.874 335.368 440.989 336.191 441.812C337.014 442.634 338.13 443.096 339.293 443.096H517.345C518.509 443.096 519.624 442.634 520.447 441.812C521.27 440.989 521.732 439.874 521.732 438.711C521.732 437.549 521.27 436.434 520.447 435.611C519.624 434.789 518.509 434.327 517.345 434.327V434.327Z" fill="#E4E4E4"/>
<path d="M406.922 454.874H339.293C338.13 454.874 337.014 455.336 336.191 456.158C335.368 456.98 334.906 458.095 334.906 459.258C334.906 460.421 335.368 461.536 336.191 462.358C337.014 463.18 338.13 463.642 339.293 463.642H406.922C408.085 463.642 409.201 463.18 410.024 462.358C410.847 461.536 411.309 460.421 411.309 459.258C411.309 458.095 410.847 456.98 410.024 456.158C409.201 455.336 408.085 454.874 406.922 454.874V454.874Z" fill="#E4E4E4"/>
<path d="M680.002 621.82H387.56C386.212 621.82 385.115 601.109 385.115 575.648V304.052C385.115 278.591 386.212 257.88 387.56 257.88H680.002C681.351 257.88 682.447 278.591 682.447 304.052V575.648C682.447 601.109 681.351 621.82 680.002 621.82Z" fill="url(#paint0_linear_4_203)"/>
<path d="M680.002 623H387.56C386.323 623 385.429 623 384.653 608.344C384.189 599.593 383.934 587.982 383.934 575.648V304.052C383.934 291.718 384.189 280.106 384.653 271.356C385.429 256.7 386.323 256.7 387.56 256.7H680.002C681.24 256.7 682.134 256.7 682.91 271.356C683.373 280.106 683.628 291.718 683.628 304.052V575.648C683.628 587.982 683.373 599.593 682.91 608.344C682.134 623 681.24 623 680.002 623ZM388.214 620.64H679.349C680.196 617.582 681.267 601.292 681.267 575.648V304.052C681.267 278.408 680.196 262.117 679.349 259.06H388.214C387.366 262.117 386.296 278.407 386.296 304.052V575.648C386.296 601.292 387.366 617.582 388.214 620.64Z" fill="#E4E4E4"/>
<path d="M680.002 277.141H387.56C386.912 277.14 386.291 276.882 385.832 276.424C385.374 275.966 385.116 275.345 385.115 274.697V260.324C385.116 259.676 385.374 259.055 385.832 258.596C386.291 258.138 386.912 257.881 387.56 257.88H680.002C680.651 257.881 681.272 258.138 681.73 258.596C682.189 259.055 682.447 259.676 682.447 260.324V274.697C682.447 275.345 682.189 275.966 681.73 276.424C681.272 276.882 680.651 277.14 680.002 277.141V277.141Z" fill="black"/>
<path d="M399.305 270.278C401.222 270.278 402.776 268.725 402.776 266.809C402.776 264.893 401.222 263.34 399.305 263.34C397.388 263.34 395.833 264.893 395.833 266.809C395.833 268.725 397.388 270.278 399.305 270.278Z" fill="white"/>
<path d="M412.481 270.278C414.398 270.278 415.952 268.725 415.952 266.809C415.952 264.893 414.398 263.34 412.481 263.34C410.564 263.34 409.01 264.893 409.01 266.809C409.01 268.725 410.564 270.278 412.481 270.278Z" fill="white"/>
<path d="M425.657 270.278C427.575 270.278 429.129 268.725 429.129 266.809C429.129 264.893 427.575 263.34 425.657 263.34C423.74 263.34 422.186 264.893 422.186 266.809C422.186 268.725 423.74 270.278 425.657 270.278Z" fill="white"/>
<path d="M667.093 264.421H651.92C651.622 264.421 651.336 264.303 651.125 264.092C650.915 263.882 650.796 263.596 650.796 263.298C650.796 263 650.915 262.715 651.125 262.504C651.336 262.293 651.622 262.175 651.92 262.175H667.093C667.39 262.176 667.675 262.295 667.885 262.505C668.095 262.716 668.213 263.001 668.213 263.298C668.213 263.595 668.095 263.881 667.885 264.091C667.675 264.302 667.39 264.42 667.093 264.421Z" fill="white"/>
<path d="M667.093 268.633H651.92C651.622 268.633 651.336 268.515 651.125 268.305C650.915 268.094 650.796 267.808 650.796 267.51C650.796 267.212 650.915 266.927 651.125 266.716C651.336 266.505 651.622 266.387 651.92 266.387H667.093C667.391 266.387 667.677 266.505 667.887 266.716C668.098 266.927 668.217 267.212 668.217 267.51C668.217 267.808 668.098 268.094 667.887 268.305C667.677 268.515 667.391 268.633 667.093 268.633V268.633Z" fill="white"/>
<path d="M667.093 272.846H651.92C651.622 272.846 651.336 272.727 651.125 272.517C650.915 272.306 650.796 272.02 650.796 271.722C650.796 271.424 650.915 271.139 651.125 270.928C651.336 270.717 651.622 270.599 651.92 270.599H667.093C667.39 270.6 667.675 270.719 667.885 270.929C668.095 271.14 668.213 271.425 668.213 271.722C668.213 272.02 668.095 272.305 667.885 272.515C667.675 272.726 667.39 272.845 667.093 272.846V272.846Z" fill="white"/>
<path d="M477.425 366.357H440.117C438.246 366.355 436.453 365.612 435.131 364.29C433.808 362.968 433.064 361.176 433.062 359.307V327.013C433.064 325.144 433.808 323.352 435.131 322.03C436.453 320.708 438.246 319.965 440.117 319.963H477.425C479.295 319.965 481.088 320.708 482.411 322.03C483.734 323.352 484.478 325.144 484.48 327.013V359.307C484.478 361.176 483.734 362.968 482.411 364.29C481.088 365.612 479.295 366.355 477.425 366.357Z" fill="white"/>
<path d="M631.298 338.859H501.271C500.422 338.859 499.607 338.522 499.006 337.921C498.406 337.321 498.068 336.507 498.068 335.658C498.068 334.809 498.406 333.994 499.006 333.394C499.607 332.794 500.422 332.457 501.271 332.457H631.298C632.147 332.457 632.962 332.794 633.563 333.394C634.163 333.994 634.501 334.809 634.501 335.658C634.501 336.507 634.163 337.321 633.563 337.921C632.962 338.522 632.147 338.859 631.298 338.859V338.859Z" fill="#E4E4E4"/>
<path d="M550.657 353.863H501.271C500.422 353.863 499.607 353.526 499.006 352.926C498.406 352.326 498.068 351.511 498.068 350.662C498.068 349.813 498.406 348.999 499.006 348.399C499.607 347.798 500.422 347.461 501.271 347.461H550.657C551.078 347.46 551.496 347.543 551.885 347.703C552.274 347.864 552.628 348.099 552.926 348.397C553.224 348.694 553.461 349.047 553.622 349.436C553.784 349.825 553.867 350.241 553.867 350.662C553.867 351.083 553.784 351.5 553.622 351.889C553.461 352.278 553.224 352.631 552.926 352.928C552.628 353.225 552.274 353.461 551.885 353.622C551.496 353.782 551.078 353.864 550.657 353.863Z" fill="#E4E4E4"/>
<path d="M477.425 461.951H440.117C438.246 461.949 436.453 461.205 435.131 459.883C433.808 458.561 433.064 456.769 433.062 454.9V422.607C433.064 420.737 433.808 418.945 435.131 417.623C436.453 416.302 438.246 415.558 440.117 415.556H477.425C479.295 415.558 481.088 416.302 482.411 417.623C483.734 418.945 484.478 420.737 484.48 422.607V454.9C484.478 456.769 483.734 458.561 482.411 459.883C481.088 461.205 479.295 461.949 477.425 461.951Z" fill="white"/>
<path d="M631.298 434.452H501.271C500.422 434.452 499.607 434.115 499.006 433.515C498.406 432.914 498.068 432.1 498.068 431.251C498.068 430.402 498.406 429.588 499.006 428.987C499.607 428.387 500.422 428.05 501.271 428.05H631.298C632.147 428.05 632.962 428.387 633.563 428.987C634.163 429.588 634.501 430.402 634.501 431.251C634.501 432.1 634.163 432.914 633.563 433.515C632.962 434.115 632.147 434.452 631.298 434.452V434.452Z" fill="#E4E4E4"/>
<path d="M550.657 449.457H501.271C500.422 449.457 499.607 449.119 499.006 448.519C498.406 447.919 498.068 447.105 498.068 446.256C498.068 445.407 498.406 444.592 499.006 443.992C499.607 443.392 500.422 443.054 501.271 443.054H550.657C551.078 443.054 551.496 443.136 551.885 443.296C552.274 443.457 552.628 443.693 552.926 443.99C553.224 444.287 553.461 444.64 553.622 445.029C553.784 445.418 553.867 445.835 553.867 446.256C553.867 446.677 553.784 447.093 553.622 447.482C553.461 447.871 553.224 448.224 552.926 448.521C552.628 448.819 552.274 449.054 551.885 449.215C551.496 449.375 551.078 449.458 550.657 449.457V449.457Z" fill="#E4E4E4"/>
<path d="M477.425 557.544H440.117C438.246 557.542 436.453 556.798 435.131 555.477C433.808 554.155 433.064 552.363 433.062 550.493V518.2C433.064 516.331 433.808 514.539 435.131 513.217C436.453 511.895 438.246 511.151 440.117 511.149H477.425C479.295 511.151 481.088 511.895 482.411 513.217C483.734 514.539 484.478 516.331 484.48 518.2V550.493C484.478 552.363 483.734 554.155 482.411 555.477C481.088 556.798 479.295 557.542 477.425 557.544Z" fill="white"/>
<path d="M631.298 530.045H501.271C500.422 530.045 499.607 529.708 499.006 529.108C498.406 528.508 498.068 527.693 498.068 526.844C498.068 525.995 498.406 525.181 499.006 524.581C499.607 523.98 500.422 523.643 501.271 523.643H631.298C632.147 523.643 632.962 523.98 633.563 524.581C634.163 525.181 634.501 525.995 634.501 526.844C634.501 527.693 634.163 528.508 633.563 529.108C632.962 529.708 632.147 530.045 631.298 530.045Z" fill="#E4E4E4"/>
<path d="M550.657 545.05H501.271C500.422 545.05 499.607 544.713 499.006 544.112C498.406 543.512 498.068 542.698 498.068 541.849C498.068 541 498.406 540.186 499.006 539.585C499.607 538.985 500.422 538.648 501.271 538.648H550.657C551.078 538.647 551.496 538.729 551.885 538.89C552.274 539.05 552.628 539.286 552.926 539.583C553.224 539.881 553.461 540.234 553.622 540.622C553.784 541.011 553.867 541.428 553.867 541.849C553.867 542.27 553.784 542.687 553.622 543.075C553.461 543.464 553.224 543.817 552.926 544.115C552.628 544.412 552.274 544.648 551.885 544.808C551.496 544.969 551.078 545.051 550.657 545.05V545.05Z" fill="#E4E4E4"/>
</g>
<defs>
<linearGradient id="paint0_linear_4_203" x1="345" y1="220.5" x2="782" y2="753" gradientUnits="userSpaceOnUse">
<stop stop-color="#3BDA57"/>
<stop offset="1" stop-color="#446AEF"/>
</linearGradient>
<clipPath id="clip0_4_203">
<rect width="864" height="515" fill="white" transform="translate(68 108)"/>
</clipPath>
</defs>
</svg>
