<svg width="200" height="200" viewBox="0 0 200 200" fill="none" xmlns="http://www.w3.org/2000/svg">
<rect width="200" height="200" fill="none"/>
<path d="M52.907 12H148V51.75H52.907V12Z" fill="url(#paint0_linear_1_2)"/>
<path d="M7 58.375H148V98.125H7V58.375Z" fill="url(#paint1_linear_1_2)"/>
<path d="M108.651 12H148V98.125H108.651V12Z" fill="url(#paint2_linear_1_2)"/>
<path d="M7 58.375H46.3488V118H7V58.375Z" fill="url(#paint3_linear_1_2)"/>
<path d="M147.093 188H52V148.625H147.093V188Z" fill="url(#paint4_linear_1_2)"/>
<path d="M193 142.062H52V102.688H193V142.062Z" fill="url(#paint5_linear_1_2)"/>
<path d="M91.3488 188H52V102.688H91.3488V188Z" fill="url(#paint6_linear_1_2)"/>
<path d="M193 142.062H153.651V83H193V142.062Z" fill="url(#paint7_linear_1_2)"/>
<circle cx="70" cy="29" r="7" fill="white"/>
<circle cx="132" cy="173" r="7" fill="white"/>
<defs>
<linearGradient id="paint0_linear_1_2" x1="2.83065" y1="6.57955" x2="117.82" y2="151.313" gradientUnits="userSpaceOnUse">
<stop stop-color="#3BDA57"/>
<stop offset="1" stop-color="#446AEF"/>
</linearGradient>
<linearGradient id="paint1_linear_1_2" x1="2.83065" y1="6.57955" x2="117.82" y2="151.313" gradientUnits="userSpaceOnUse">
<stop stop-color="#3BDA57"/>
<stop offset="1" stop-color="#446AEF"/>
</linearGradient>
<linearGradient id="paint2_linear_1_2" x1="2.83065" y1="6.57955" x2="117.82" y2="151.313" gradientUnits="userSpaceOnUse">
<stop stop-color="#3BDA57"/>
<stop offset="1" stop-color="#446AEF"/>
</linearGradient>
<linearGradient id="paint3_linear_1_2" x1="2.83065" y1="6.57955" x2="117.82" y2="151.313" gradientUnits="userSpaceOnUse">
<stop stop-color="#3BDA57"/>
<stop offset="1" stop-color="#446AEF"/>
</linearGradient>
<linearGradient id="paint4_linear_1_2" x1="197.169" y1="193.369" x2="83.5138" y2="48.9517" gradientUnits="userSpaceOnUse">
<stop stop-color="#3BDA57"/>
<stop offset="1" stop-color="#446AEF"/>
</linearGradient>
<linearGradient id="paint5_linear_1_2" x1="197.169" y1="193.369" x2="83.5138" y2="48.9517" gradientUnits="userSpaceOnUse">
<stop stop-color="#3BDA57"/>
<stop offset="1" stop-color="#446AEF"/>
</linearGradient>
<linearGradient id="paint6_linear_1_2" x1="197.169" y1="193.369" x2="83.5138" y2="48.9517" gradientUnits="userSpaceOnUse">
<stop stop-color="#3BDA57"/>
<stop offset="1" stop-color="#446AEF"/>
</linearGradient>
<linearGradient id="paint7_linear_1_2" x1="197.169" y1="193.369" x2="83.5138" y2="48.9517" gradientUnits="userSpaceOnUse">
<stop stop-color="#3BDA57"/>
<stop offset="1" stop-color="#446AEF"/>
</linearGradient>
</defs>
</svg>
